{"title":"The Horde 2009 DVDRiP XViD AC3-LEGi0N","uid":5952940,"size":1486197745,"categoryP":"video","categoryS":"movies","magnet":"?xt=urn:btih:4369cddd451d2d7beba2e21162ad27c8047bb4df&amp;dn=The+Horde+2009+DVDRiP+XViD+AC3-LEGi0N&amp;tr=udp%3A%2F%2Ftracker.openbittorrent.com%3A80&amp;tr=udp%3A%2F%2Fopen.demonii.com%3A1337&amp;tr=udp%3A%2F%2Ftracker.coppersurfer.tk%3A6969&amp;tr=udp%3A%2F%2Fexodus.desync.com%3A6969","seeders":0,"leechers":1,"uploader":"jerry7_57","files":-1,"time":1289592160,"description":"The Horde 2010 DVDRiP XViD AC3-LEGi0N \n\nFormat: AVI\nFile size: 1.37 GiB\nDuration: 1h 36mn\nOverall bit rate: 2 026 Kbps\nIMDb Rating: 6/10\nGenre: Action | Horror | Thriller\nRelease: 2009\nSubs: N/A\nLanguage: English\nIMDb Link: http://www.imdb.com/title/tt1183276/\nTrailer: http://www.imdb.com/video/screenplay/vi2999453209/\nSource: [Video] DVDR-FiCeLLo | [Audio] DVDR-FiCeLLo\nSample: Yes Video\nFourCC: XViD\nMatrix: MPEG\nBVOP: Yes\nQPel: No\nGMC: No\nBit rate: 1 572 Kbps\nResolution: 720X304\nDAR: 1 592 Kbps\nFPS: 23.976 fps\nBit depth: 24 bits\nQF: 0.300\nStream size: 1.06 GiB Audio\nFormat: AC3-5.1\nBit rate: 448 Kbps\nChannels: 6 channels\nSampling rate: 48.0 KHz\nBit rate mode: Constant\nStream size: 310 MiB\n\nAn end of the world battle between gangsters, cops and zombies Tagline:\nPain Brings Out The Truth In Us All ... How Much Truth Can You Stand?\n\nClaude Perron ... Aurore\nJean-Pierre Martins ... Ouessem\nEriq Ebouaney ... Adewale\nAur lien Recoing ... Jimenez\nAntoine Oppenheim ... Tony\nJo Prestia ... Greco\nYves Pignot ... Ren ","torrent":{"xt":"urn:btih:4369cddd451d2d7beba2e21162ad27c8047bb4df","amp;dn":"The+Horde+2009+DVDRiP+XViD+AC3-LEGi0N","amp;tr":["udp%3A%2F%2Ftracker.openbittorrent.com%3A80","udp%3A%2F%2Fopen.demonii.com%3A1337","udp%3A%2F%2Ftracker.coppersurfer.tk%3A6969","udp%3A%2F%2Fexodus.desync.com%3A6969"],"infoHash":"4369cddd451d2d7beba2e21162ad27c8047bb4df","infoHashBuffer":{"type":"Buffer","data":[67,105,205,221,69,29,45,123,235,162,226,17,98,173,39,200,4,123,180,223]},"announce":[],"urlList":[]}}